<svg id="Grupo_2331" data-name="Grupo 2331" xmlns="http://www.w3.org/2000/svg" width="32" height="15.285" viewBox="0 0 32 15.285">
  <path id="Trazado_6946" data-name="Trazado 6946" d="M179.1,259.442c-.171-.34,3.189-.68,5.452-1.429,3.086-1.021,6.241-2.688,10.973-3.743,5.281-1.157,12.31-.306,11.11.544-.549.408-5.281-.442-10.047.647-2.057.476-9.156,2.96-11.659,3.539A20.51,20.51,0,0,1,179.1,259.442Z" transform="translate(-179.098 -251.562)" fill="#fff"/>
  <path id="Trazado_6947" data-name="Trazado 6947" d="M340.829,238c-.442-.817,3.335.238,5.717,1.191,1.293.51,3.3,1.633,2.824,2.348-.374.578-3.028,1.021-4.083,1.565-.715.374-1.463.987-1.429.749a2.846,2.846,0,0,1,1.259-1.6c1.055-.68,1.769-.885,2.042-1.191.374-.442-.374-.851-1.906-1.463Z" transform="translate(-318.901 -237.706)" fill="#fff"/>
  <path id="Trazado_6948" data-name="Trazado 6948" d="M253.685,297.169c-.34.34-1.191.783-1.463.442a14.757,14.757,0,0,1,2.552-3.267,8.17,8.17,0,0,1,2.28-1.021,7.284,7.284,0,0,0,2.45-1.123,12.1,12.1,0,0,0,2.45-2.824,6.083,6.083,0,0,1-1.94,3.369,9.522,9.522,0,0,1-2.824,1.4,4.987,4.987,0,0,0-1.633.714A14.216,14.216,0,0,0,253.685,297.169Z" transform="translate(-242.321 -282.449)" fill="#fff"/>
  <path id="Trazado_6949" data-name="Trazado 6949" d="M322.3,290.569a5.634,5.634,0,0,1-1.293-.374,8.045,8.045,0,0,0,2.79-.715c.374-.2.715-.408,1.055-.612a4.459,4.459,0,0,1,2.11-.885,3.648,3.648,0,0,1,2.246.306c.442.272.442,1.055.442,1.055a5.139,5.139,0,0,0-2.484-.578,6.208,6.208,0,0,0-2.756,1.157A4.155,4.155,0,0,1,322.3,290.569Z" transform="translate(-301.771 -281.192)" fill="#fff"/>
  <path id="Trazado_6950" data-name="Trazado 6950" d="M373.093,285.78,368.976,285l.613-1.327.442.17-.306.715,2.892.51,1.531-3.1-3.13-.17-.306.681-.51-.17.544-1.055,4.56.2Z" transform="translate(-343.305 -275.415)" fill="#fff"/>
  <path id="Trazado_6951" data-name="Trazado 6951" d="M388.317,284.808l-.306.646,1.225.136.374-.783Z" transform="translate(-359.788 -278.493)" fill="#fff"/>
  <path id="Trazado_6952" data-name="Trazado 6952" d="M386.945,302.319l-.2.408.953.17.2-.442Z" transform="translate(-358.688 -293.656)" fill="#fff"/>
</svg>
